<?xml version="1.0" encoding="UTF-8"?>
<svg xmlns="http://www.w3.org/2000/svg" xmlns:xlink="http://www.w3.org/1999/xlink" width="504pt" height="360pt" viewBox="0 0 504 360">
<defs>
<g>
<g id="glyph-0-0">
<path d="M 0.367188 -3.105469 C 0.367188 -3.851562 0.441406 -4.449219 0.59375 -4.90625 C 0.75 -5.359375 0.976562 -5.710938 1.277344 -5.957031 C 1.582031 -6.203125 1.960938 -6.324219 2.417969 -6.324219 C 2.757812 -6.324219 3.054688 -6.257812 3.308594 -6.121094 C 3.5625 -5.984375 3.773438 -5.789062 3.941406 -5.53125 C 4.105469 -5.277344 4.238281 -4.964844 4.332031 -4.59375 C 4.425781 -4.226562 4.472656 -3.730469 4.472656 -3.105469 C 4.472656 -2.367188 4.398438 -1.769531 4.246094 -1.316406 C 4.09375 -0.863281 3.867188 -0.511719 3.5625 -0.265625 C 3.261719 -0.015625 2.878906 0.109375 2.417969 0.109375 C 1.8125 0.109375 1.335938 -0.109375 0.988281 -0.546875 C 0.574219 -1.070312 0.367188 -1.921875 0.367188 -3.105469 M 1.160156 -3.105469 C 1.160156 -2.074219 1.28125 -1.382812 1.523438 -1.042969 C 1.765625 -0.699219 2.0625 -0.527344 2.417969 -0.527344 C 2.773438 -0.527344 3.074219 -0.699219 3.316406 -1.042969 C 3.558594 -1.386719 3.679688 -2.074219 3.679688 -3.105469 C 3.679688 -4.144531 3.558594 -4.832031 3.316406 -5.171875 C 3.074219 -5.515625 2.773438 -5.683594 2.410156 -5.683594 C 2.054688 -5.683594 1.773438 -5.535156 1.558594 -5.234375 C 1.292969 -4.851562 1.160156 -4.140625 1.160156 -3.105469 Z M 1.160156 -3.105469 "/>
</g>
<g id="glyph-0-1">
<path d="M 0.367188 -1.648438 L 1.175781 -1.71875 C 1.238281 -1.324219 1.378906 -1.027344 1.597656 -0.828125 C 1.816406 -0.628906 2.078125 -0.527344 2.390625 -0.527344 C 2.761719 -0.527344 3.078125 -0.667969 3.335938 -0.949219 C 3.59375 -1.230469 3.722656 -1.601562 3.722656 -2.066406 C 3.722656 -2.507812 3.597656 -2.855469 3.347656 -3.109375 C 3.101562 -3.367188 2.777344 -3.492188 2.375 -3.492188 C 2.125 -3.492188 1.902344 -3.4375 1.703125 -3.324219 C 1.5 -3.210938 1.34375 -3.0625 1.230469 -2.882812 L 0.503906 -2.976562 L 1.113281 -6.214844 L 4.246094 -6.214844 L 4.246094 -5.472656 L 1.730469 -5.472656 L 1.390625 -3.78125 C 1.769531 -4.042969 2.167969 -4.175781 2.582031 -4.175781 C 3.132812 -4.175781 3.597656 -3.984375 3.976562 -3.605469 C 4.351562 -3.222656 4.542969 -2.734375 4.542969 -2.136719 C 4.542969 -1.566406 4.375 -1.074219 4.042969 -0.65625 C 3.640625 -0.148438 3.089844 0.109375 2.390625 0.109375 C 1.816406 0.109375 1.347656 -0.0546875 0.984375 -0.375 C 0.625 -0.695312 0.417969 -1.121094 0.367188 -1.648438 Z M 0.367188 -1.648438 "/>
</g>
<g id="glyph-0-2">
<path d="M 3.277344 0 L 2.503906 0 L 2.503906 -4.929688 C 2.320312 -4.75 2.074219 -4.574219 1.773438 -4.394531 C 1.46875 -4.21875 1.199219 -4.085938 0.957031 -3.996094 L 0.957031 -4.742188 C 1.390625 -4.945312 1.769531 -5.195312 2.09375 -5.484375 C 2.417969 -5.773438 2.644531 -6.054688 2.78125 -6.324219 L 3.277344 -6.324219 Z M 3.277344 0 "/>
</g>
<g id="glyph-0-3">
<path d="M 4.429688 -0.742188 L 4.429688 0 L 0.265625 0 C 0.261719 -0.1875 0.289062 -0.367188 0.355469 -0.539062 C 0.460938 -0.820312 0.632812 -1.101562 0.867188 -1.375 C 1.097656 -1.648438 1.4375 -1.96875 1.878906 -2.328125 C 2.5625 -2.890625 3.023438 -3.335938 3.265625 -3.664062 C 3.507812 -3.992188 3.625 -4.300781 3.625 -4.59375 C 3.625 -4.898438 3.515625 -5.160156 3.296875 -5.367188 C 3.078125 -5.578125 2.792969 -5.683594 2.441406 -5.683594 C 2.066406 -5.683594 1.769531 -5.574219 1.546875 -5.351562 C 1.324219 -5.125 1.210938 -4.816406 1.207031 -4.421875 L 0.414062 -4.503906 C 0.46875 -5.097656 0.671875 -5.546875 1.027344 -5.859375 C 1.382812 -6.167969 1.859375 -6.324219 2.457031 -6.324219 C 3.0625 -6.324219 3.539062 -6.15625 3.894531 -5.824219 C 4.246094 -5.488281 4.421875 -5.070312 4.421875 -4.578125 C 4.421875 -4.324219 4.371094 -4.078125 4.265625 -3.832031 C 4.164062 -3.589844 3.992188 -3.332031 3.753906 -3.0625 C 3.515625 -2.792969 3.117188 -2.425781 2.5625 -1.957031 C 2.097656 -1.566406 1.800781 -1.300781 1.667969 -1.164062 C 1.535156 -1.023438 1.425781 -0.882812 1.339844 -0.742188 Z M 4.429688 -0.742188 "/>
</g>
<g id="glyph-1-0">
<path d="M 4.445312 -0.703125 C 4.089844 -0.398438 3.746094 -0.183594 3.414062 -0.0585938 C 3.082031 0.0664062 2.726562 0.128906 2.347656 0.128906 C 1.71875 0.128906 1.238281 -0.0234375 0.902344 -0.332031 C 0.566406 -0.636719 0.398438 -1.027344 0.398438 -1.503906 C 0.398438 -1.78125 0.460938 -2.039062 0.589844 -2.269531 C 0.714844 -2.5 0.882812 -2.6875 1.085938 -2.824219 C 1.292969 -2.964844 1.523438 -3.070312 1.78125 -3.140625 C 1.972656 -3.191406 2.257812 -3.242188 2.640625 -3.289062 C 3.421875 -3.378906 3.996094 -3.492188 4.367188 -3.621094 C 4.371094 -3.753906 4.371094 -3.835938 4.371094 -3.871094 C 4.371094 -4.265625 4.28125 -4.542969 4.097656 -4.703125 C 3.851562 -4.921875 3.484375 -5.03125 2.996094 -5.03125 C 2.542969 -5.03125 2.207031 -4.953125 1.988281 -4.792969 C 1.773438 -4.632812 1.613281 -4.351562 1.507812 -3.949219 L 0.5625 -4.078125 C 0.648438 -4.480469 0.792969 -4.808594 0.988281 -5.058594 C 1.183594 -5.304688 1.46875 -5.496094 1.84375 -5.632812 C 2.214844 -5.765625 2.644531 -5.832031 3.136719 -5.832031 C 3.625 -5.832031 4.019531 -5.777344 4.324219 -5.660156 C 4.628906 -5.546875 4.851562 -5.402344 4.996094 -5.230469 C 5.136719 -5.054688 5.238281 -4.835938 5.296875 -4.570312 C 5.328125 -4.40625 5.34375 -4.109375 5.34375 -3.679688 L 5.34375 -2.390625 C 5.34375 -1.492188 5.363281 -0.921875 5.40625 -0.683594 C 5.445312 -0.445312 5.527344 -0.21875 5.648438 0 L 4.640625 0 C 4.539062 -0.199219 4.476562 -0.433594 4.445312 -0.703125 M 4.367188 -2.863281 C 4.015625 -2.71875 3.488281 -2.597656 2.789062 -2.496094 C 2.390625 -2.441406 2.109375 -2.375 1.945312 -2.304688 C 1.78125 -2.234375 1.652344 -2.128906 1.5625 -1.988281 C 1.472656 -1.851562 1.429688 -1.699219 1.429688 -1.53125 C 1.429688 -1.273438 1.527344 -1.058594 1.722656 -0.886719 C 1.917969 -0.714844 2.203125 -0.628906 2.578125 -0.628906 C 2.949219 -0.628906 3.28125 -0.710938 3.570312 -0.871094 C 3.863281 -1.035156 4.074219 -1.257812 4.210938 -1.542969 C 4.316406 -1.761719 4.367188 -2.082031 4.367188 -2.507812 Z M 4.367188 -2.863281 "/>
</g>
<g id="glyph-1-1">
<path d="M 0.546875 0.472656 L 1.488281 0.613281 C 1.527344 0.902344 1.636719 1.113281 1.816406 1.246094 C 2.054688 1.425781 2.382812 1.515625 2.796875 1.515625 C 3.246094 1.515625 3.589844 1.425781 3.835938 1.246094 C 4.078125 1.066406 4.242188 0.816406 4.328125 0.492188 C 4.378906 0.296875 4.402344 -0.117188 4.398438 -0.746094 C 3.976562 -0.25 3.449219 0 2.820312 0 C 2.035156 0 1.429688 -0.28125 1 -0.847656 C 0.570312 -1.414062 0.355469 -2.09375 0.355469 -2.882812 C 0.355469 -3.429688 0.453125 -3.929688 0.648438 -4.390625 C 0.847656 -4.851562 1.132812 -5.207031 1.507812 -5.457031 C 1.878906 -5.707031 2.320312 -5.832031 2.824219 -5.832031 C 3.5 -5.832031 4.054688 -5.5625 4.492188 -5.015625 L 4.492188 -5.703125 L 5.382812 -5.703125 L 5.382812 -0.773438 C 5.382812 0.113281 5.292969 0.742188 5.109375 1.113281 C 4.929688 1.484375 4.644531 1.777344 4.25 1.992188 C 3.859375 2.207031 3.375 2.316406 2.804688 2.316406 C 2.125 2.316406 1.574219 2.160156 1.15625 1.855469 C 0.734375 1.550781 0.535156 1.089844 0.546875 0.472656 M 1.347656 -2.953125 C 1.347656 -2.207031 1.496094 -1.660156 1.792969 -1.316406 C 2.089844 -0.972656 2.464844 -0.800781 2.910156 -0.800781 C 3.355469 -0.800781 3.726562 -0.972656 4.027344 -1.3125 C 4.328125 -1.65625 4.480469 -2.191406 4.480469 -2.921875 C 4.480469 -3.621094 4.324219 -4.148438 4.015625 -4.5 C 3.707031 -4.855469 3.332031 -5.03125 2.894531 -5.03125 C 2.464844 -5.03125 2.101562 -4.859375 1.800781 -4.507812 C 1.5 -4.160156 1.347656 -3.640625 1.347656 -2.953125 Z M 1.347656 -2.953125 "/>
</g>
<g id="glyph-1-2">
<path d="M 4.628906 -1.835938 L 5.628906 -1.714844 C 5.472656 -1.128906 5.179688 -0.675781 4.753906 -0.355469 C 4.328125 -0.03125 3.78125 0.128906 3.121094 0.128906 C 2.285156 0.128906 1.625 -0.128906 1.136719 -0.640625 C 0.648438 -1.15625 0.402344 -1.875 0.402344 -2.804688 C 0.402344 -3.761719 0.648438 -4.507812 1.144531 -5.039062 C 1.636719 -5.566406 2.277344 -5.832031 3.066406 -5.832031 C 3.828125 -5.832031 4.453125 -5.574219 4.9375 -5.054688 C 5.417969 -4.535156 5.660156 -3.804688 5.660156 -2.863281 C 5.660156 -2.804688 5.660156 -2.71875 5.65625 -2.605469 L 1.402344 -2.605469 C 1.4375 -1.976562 1.613281 -1.5 1.933594 -1.164062 C 2.253906 -0.832031 2.648438 -0.664062 3.125 -0.664062 C 3.480469 -0.664062 3.78125 -0.757812 4.035156 -0.945312 C 4.285156 -1.132812 4.484375 -1.429688 4.628906 -1.835938 M 1.457031 -3.398438 L 4.640625 -3.398438 C 4.597656 -3.878906 4.476562 -4.238281 4.273438 -4.480469 C 3.96875 -4.851562 3.566406 -5.039062 3.078125 -5.039062 C 2.632812 -5.039062 2.261719 -4.890625 1.957031 -4.59375 C 1.65625 -4.296875 1.488281 -3.898438 1.457031 -3.398438 Z M 1.457031 -3.398438 "/>
</g>
<g id="glyph-1-3">
<path d="M 1 0 L 1 -1.101562 L 2.101562 -1.101562 L 2.101562 0 Z M 1 0 "/>
</g>
<g id="glyph-1-4">
<path d="M 0.0820312 0 L 2.164062 -2.964844 L 0.234375 -5.703125 L 1.445312 -5.703125 L 2.320312 -4.367188 C 2.484375 -4.113281 2.617188 -3.898438 2.71875 -3.726562 C 2.875 -3.964844 3.019531 -4.171875 3.152344 -4.355469 L 4.113281 -5.703125 L 5.269531 -5.703125 L 3.296875 -3.019531 L 5.417969 0 L 4.234375 0 L 3.0625 -1.773438 L 2.75 -2.25 L 1.25 0 Z M 0.0820312 0 "/>
</g>
<g id="glyph-2-0">
<path d="M -6.761719 -0.730469 L -7.875 -0.730469 L -7.875 -1.699219 L -6.761719 -1.699219 L -6.761719 -0.730469 M 0 -0.730469 L -5.703125 -0.730469 L -5.703125 -1.699219 L 0 -1.695312 Z M 0 -0.730469 "/>
</g>
<g id="glyph-2-1">
<path d="M 0 -0.726562 L -5.703125 -0.726562 L -5.703125 -1.59375 L -4.894531 -1.59375 C -5.519531 -2.015625 -5.832031 -2.621094 -5.832031 -3.410156 C -5.832031 -3.753906 -5.769531 -4.070312 -5.648438 -4.359375 C -5.523438 -4.648438 -5.363281 -4.863281 -5.160156 -5.007812 C -4.960938 -5.148438 -4.722656 -5.25 -4.445312 -5.304688 C -4.269531 -5.34375 -3.953125 -5.359375 -3.507812 -5.359375 L 0 -5.359375 L 0 -4.394531 L -3.46875 -4.394531 C -3.863281 -4.394531 -4.15625 -4.355469 -4.351562 -4.28125 C -4.546875 -4.207031 -4.703125 -4.070312 -4.820312 -3.878906 C -4.9375 -3.6875 -4.996094 -3.464844 -4.996094 -3.207031 C -4.996094 -2.792969 -4.863281 -2.4375 -4.601562 -2.140625 C -4.339844 -1.839844 -3.84375 -1.691406 -3.117188 -1.691406 L 0 -1.691406 Z M 0 -0.726562 "/>
</g>
<g id="glyph-2-2">
<path d="M -2.089844 -4.445312 L -1.964844 -5.398438 C -1.308594 -5.292969 -0.796875 -5.027344 -0.425781 -4.601562 C -0.0546875 -4.171875 0.128906 -3.648438 0.128906 -3.023438 C 0.128906 -2.242188 -0.125 -1.617188 -0.636719 -1.140625 C -1.148438 -0.667969 -1.878906 -0.429688 -2.832031 -0.429688 C -3.445312 -0.429688 -3.984375 -0.53125 -4.445312 -0.734375 C -4.910156 -0.941406 -5.253906 -1.25 -5.488281 -1.667969 C -5.71875 -2.085938 -5.832031 -2.539062 -5.832031 -3.03125 C -5.832031 -3.648438 -5.675781 -4.15625 -5.363281 -4.550781 C -5.050781 -4.941406 -4.605469 -5.195312 -4.027344 -5.304688 L -3.882812 -4.367188 C -4.265625 -4.277344 -4.554688 -4.117188 -4.75 -3.890625 C -4.941406 -3.664062 -5.039062 -3.390625 -5.039062 -3.066406 C -5.039062 -2.578125 -4.863281 -2.183594 -4.515625 -1.878906 C -4.164062 -1.574219 -3.613281 -1.421875 -2.859375 -1.421875 C -2.089844 -1.421875 -1.535156 -1.570312 -1.1875 -1.863281 C -0.839844 -2.15625 -0.664062 -2.539062 -0.664062 -3.011719 C -0.664062 -3.394531 -0.78125 -3.710938 -1.015625 -3.964844 C -1.246094 -4.21875 -1.605469 -4.378906 -2.089844 -4.445312 Z M -2.089844 -4.445312 "/>
</g>
<g id="glyph-2-3">
<path d="M 0 -4.425781 L -0.71875 -4.425781 C -0.152344 -4.0625 0.128906 -3.53125 0.128906 -2.832031 C 0.128906 -2.375 0.00390625 -1.957031 -0.246094 -1.578125 C -0.496094 -1.195312 -0.847656 -0.898438 -1.296875 -0.691406 C -1.746094 -0.480469 -2.261719 -0.375 -2.847656 -0.375 C -3.414062 -0.375 -3.933594 -0.472656 -4.394531 -0.660156 C -4.859375 -0.851562 -5.214844 -1.136719 -5.460938 -1.515625 C -5.710938 -1.894531 -5.832031 -2.320312 -5.832031 -2.789062 C -5.832031 -3.132812 -5.761719 -3.4375 -5.617188 -3.707031 C -5.46875 -3.976562 -5.28125 -4.191406 -5.046875 -4.359375 L -7.875 -4.363281 L -7.875 -5.324219 L 0 -5.324219 L 0 -4.425781 M -2.847656 -1.371094 C -2.117188 -1.371094 -1.570312 -1.523438 -1.207031 -1.832031 C -0.847656 -2.140625 -0.664062 -2.503906 -0.664062 -2.921875 C -0.664062 -3.34375 -0.839844 -3.703125 -1.183594 -4 C -1.53125 -4.292969 -2.058594 -4.441406 -2.765625 -4.441406 C -3.546875 -4.441406 -4.121094 -4.292969 -4.484375 -3.992188 C -4.851562 -3.691406 -5.03125 -3.320312 -5.03125 -2.878906 C -5.03125 -2.449219 -4.855469 -2.089844 -4.507812 -1.800781 C -4.15625 -1.515625 -3.601562 -1.371094 -2.847656 -1.371094 Z M -2.847656 -1.371094 "/>
</g>
<g id="glyph-2-4">
<path d="M -1.835938 -4.628906 L -1.714844 -5.628906 C -1.128906 -5.472656 -0.675781 -5.179688 -0.355469 -4.753906 C -0.03125 -4.328125 0.128906 -3.78125 0.128906 -3.121094 C 0.128906 -2.285156 -0.128906 -1.625 -0.640625 -1.136719 C -1.15625 -0.648438 -1.875 -0.402344 -2.804688 -0.402344 C -3.761719 -0.402344 -4.507812 -0.648438 -5.039062 -1.144531 C -5.566406 -1.636719 -5.832031 -2.277344 -5.832031 -3.066406 C -5.832031 -3.828125 -5.574219 -4.453125 -5.054688 -4.9375 C -4.535156 -5.417969 -3.804688 -5.660156 -2.863281 -5.660156 C -2.804688 -5.660156 -2.71875 -5.660156 -2.605469 -5.65625 L -2.605469 -1.402344 C -1.976562 -1.4375 -1.5 -1.613281 -1.164062 -1.933594 C -0.832031 -2.253906 -0.664062 -2.648438 -0.664062 -3.125 C -0.664062 -3.480469 -0.757812 -3.78125 -0.945312 -4.035156 C -1.132812 -4.285156 -1.429688 -4.484375 -1.835938 -4.628906 M -3.398438 -1.457031 L -3.398438 -4.640625 C -3.878906 -4.597656 -4.238281 -4.476562 -4.480469 -4.273438 C -4.851562 -3.96875 -5.039062 -3.566406 -5.039062 -3.078125 C -5.039062 -2.632812 -4.890625 -2.261719 -4.59375 -1.957031 C -4.296875 -1.65625 -3.898438 -1.488281 -3.398438 -1.457031 Z M -3.398438 -1.457031 "/>
</g>
</g>
<clipPath id="clip-0">
<path clip-rule="nonzero" d="M 49.808594 273 L 498.519531 273 L 498.519531 275 L 49.808594 275 Z M 49.808594 273 "/>
</clipPath>
<clipPath id="clip-1">
<path clip-rule="nonzero" d="M 49.808594 200 L 498.519531 200 L 498.519531 202 L 49.808594 202 Z M 49.808594 200 "/>
</clipPath>
<clipPath id="clip-2">
<path clip-rule="nonzero" d="M 49.808594 128 L 498.519531 128 L 498.519531 130 L 49.808594 130 Z M 49.808594 128 "/>
</clipPath>
<clipPath id="clip-3">
<path clip-rule="nonzero" d="M 49.808594 55 L 498.519531 55 L 498.519531 57 L 49.808594 57 Z M 49.808594 55 "/>
</clipPath>
<clipPath id="clip-4">
<path clip-rule="nonzero" d="M 139 5.480469 L 140 5.480469 L 140 324.511719 L 139 324.511719 Z M 139 5.480469 "/>
</clipPath>
<clipPath id="clip-5">
<path clip-rule="nonzero" d="M 278 5.480469 L 279 5.480469 L 279 324.511719 L 278 324.511719 Z M 278 5.480469 "/>
</clipPath>
<clipPath id="clip-6">
<path clip-rule="nonzero" d="M 417 5.480469 L 418 5.480469 L 418 324.511719 L 417 324.511719 Z M 417 5.480469 "/>
</clipPath>
<clipPath id="clip-7">
<path clip-rule="nonzero" d="M 49.808594 309 L 498.519531 309 L 498.519531 311 L 49.808594 311 Z M 49.808594 309 "/>
</clipPath>
<clipPath id="clip-8">
<path clip-rule="nonzero" d="M 49.808594 236 L 498.519531 236 L 498.519531 239 L 49.808594 239 Z M 49.808594 236 "/>
</clipPath>
<clipPath id="clip-9">
<path clip-rule="nonzero" d="M 49.808594 164 L 498.519531 164 L 498.519531 166 L 49.808594 166 Z M 49.808594 164 "/>
</clipPath>
<clipPath id="clip-10">
<path clip-rule="nonzero" d="M 49.808594 91 L 498.519531 91 L 498.519531 94 L 49.808594 94 Z M 49.808594 91 "/>
</clipPath>
<clipPath id="clip-11">
<path clip-rule="nonzero" d="M 49.808594 19 L 498.519531 19 L 498.519531 21 L 49.808594 21 Z M 49.808594 19 "/>
</clipPath>
<clipPath id="clip-12">
<path clip-rule="nonzero" d="M 69 5.480469 L 71 5.480469 L 71 324.511719 L 69 324.511719 Z M 69 5.480469 "/>
</clipPath>
<clipPath id="clip-13">
<path clip-rule="nonzero" d="M 208 5.480469 L 210 5.480469 L 210 324.511719 L 208 324.511719 Z M 208 5.480469 "/>
</clipPath>
<clipPath id="clip-14">
<path clip-rule="nonzero" d="M 347 5.480469 L 349 5.480469 L 349 324.511719 L 347 324.511719 Z M 347 5.480469 "/>
</clipPath>
<clipPath id="clip-15">
<path clip-rule="nonzero" d="M 486 5.480469 L 488 5.480469 L 488 324.511719 L 486 324.511719 Z M 486 5.480469 "/>
</clipPath>
</defs>
<rect x="-50.4" y="-36" width="604.8" height="432" fill="rgb(100%, 100%, 100%)" fill-opacity="1"/>
<rect x="-50.4" y="-36" width="604.8" height="432" fill="rgb(100%, 100%, 100%)" fill-opacity="1"/>
<g clip-path="url(#clip-0)">
<path fill="none" stroke-width="0.533489" stroke-linecap="butt" stroke-linejoin="round" stroke="rgb(92.156863%, 92.156863%, 92.156863%)" stroke-opacity="1" stroke-miterlimit="10" d="M 49.808594 273.753906 L 498.519531 273.753906 "/>
</g>
<g clip-path="url(#clip-1)">
<path fill="none" stroke-width="0.533489" stroke-linecap="butt" stroke-linejoin="round" stroke="rgb(92.156863%, 92.156863%, 92.156863%)" stroke-opacity="1" stroke-miterlimit="10" d="M 49.808594 201.246094 L 498.519531 201.246094 "/>
</g>
<g clip-path="url(#clip-2)">
<path fill="none" stroke-width="0.533489" stroke-linecap="butt" stroke-linejoin="round" stroke="rgb(92.156863%, 92.156863%, 92.156863%)" stroke-opacity="1" stroke-miterlimit="10" d="M 49.808594 128.742188 L 498.519531 128.742188 "/>
</g>
<g clip-path="url(#clip-3)">
<path fill="none" stroke-width="0.533489" stroke-linecap="butt" stroke-linejoin="round" stroke="rgb(92.156863%, 92.156863%, 92.156863%)" stroke-opacity="1" stroke-miterlimit="10" d="M 49.808594 56.234375 L 498.519531 56.234375 "/>
</g>
<g clip-path="url(#clip-4)">
<path fill="none" stroke-width="0.533489" stroke-linecap="butt" stroke-linejoin="round" stroke="rgb(92.156863%, 92.156863%, 92.156863%)" stroke-opacity="1" stroke-miterlimit="10" d="M 139.6875 324.507812 L 139.6875 5.480469 "/>
</g>
<g clip-path="url(#clip-5)">
<path fill="none" stroke-width="0.533489" stroke-linecap="butt" stroke-linejoin="round" stroke="rgb(92.156863%, 92.156863%, 92.156863%)" stroke-opacity="1" stroke-miterlimit="10" d="M 278.652344 324.507812 L 278.652344 5.480469 "/>
</g>
<g clip-path="url(#clip-6)">
<path fill="none" stroke-width="0.533489" stroke-linecap="butt" stroke-linejoin="round" stroke="rgb(92.156863%, 92.156863%, 92.156863%)" stroke-opacity="1" stroke-miterlimit="10" d="M 417.617188 324.507812 L 417.617188 5.480469 "/>
</g>
<g clip-path="url(#clip-7)">
<path fill="none" stroke-width="1.066978" stroke-linecap="butt" stroke-linejoin="round" stroke="rgb(92.156863%, 92.156863%, 92.156863%)" stroke-opacity="1" stroke-miterlimit="10" d="M 49.808594 310.007812 L 498.519531 310.007812 "/>
</g>
<g clip-path="url(#clip-8)">
<path fill="none" stroke-width="1.066978" stroke-linecap="butt" stroke-linejoin="round" stroke="rgb(92.156863%, 92.156863%, 92.156863%)" stroke-opacity="1" stroke-miterlimit="10" d="M 49.808594 237.5 L 498.519531 237.5 "/>
</g>
<g clip-path="url(#clip-9)">
<path fill="none" stroke-width="1.066978" stroke-linecap="butt" stroke-linejoin="round" stroke="rgb(92.156863%, 92.156863%, 92.156863%)" stroke-opacity="1" stroke-miterlimit="10" d="M 49.808594 164.996094 L 498.519531 164.996094 "/>
</g>
<g clip-path="url(#clip-10)">
<path fill="none" stroke-width="1.066978" stroke-linecap="butt" stroke-linejoin="round" stroke="rgb(92.156863%, 92.156863%, 92.156863%)" stroke-opacity="1" stroke-miterlimit="10" d="M 49.808594 92.488281 L 498.519531 92.488281 "/>
</g>
<g clip-path="url(#clip-11)">
<path fill="none" stroke-width="1.066978" stroke-linecap="butt" stroke-linejoin="round" stroke="rgb(92.156863%, 92.156863%, 92.156863%)" stroke-opacity="1" stroke-miterlimit="10" d="M 49.808594 19.980469 L 498.519531 19.980469 "/>
</g>
<g clip-path="url(#clip-12)">
<path fill="none" stroke-width="1.066978" stroke-linecap="butt" stroke-linejoin="round" stroke="rgb(92.156863%, 92.156863%, 92.156863%)" stroke-opacity="1" stroke-miterlimit="10" d="M 70.207031 324.507812 L 70.207031 5.480469 "/>
</g>
<g clip-path="url(#clip-13)">
<path fill="none" stroke-width="1.066978" stroke-linecap="butt" stroke-linejoin="round" stroke="rgb(92.156863%, 92.156863%, 92.156863%)" stroke-opacity="1" stroke-miterlimit="10" d="M 209.171875 324.507812 L 209.171875 5.480469 "/>
</g>
<g clip-path="url(#clip-14)">
<path fill="none" stroke-width="1.066978" stroke-linecap="butt" stroke-linejoin="round" stroke="rgb(92.156863%, 92.156863%, 92.156863%)" stroke-opacity="1" stroke-miterlimit="10" d="M 348.132812 324.507812 L 348.132812 5.480469 "/>
</g>
<g clip-path="url(#clip-15)">
<path fill="none" stroke-width="1.066978" stroke-linecap="butt" stroke-linejoin="round" stroke="rgb(92.156863%, 92.156863%, 92.156863%)" stroke-opacity="1" stroke-miterlimit="10" d="M 487.097656 324.507812 L 487.097656 5.480469 "/>
</g>
<path fill="none" stroke-width="1.066978" stroke-linecap="butt" stroke-linejoin="round" stroke="rgb(97.254902%, 46.27451%, 42.745098%)" stroke-opacity="1" stroke-miterlimit="10" d="M 70.207031 292.945312 L 71.839844 292.609375 L 72.652344 292.4375 L 73.46875 292.265625 L 75.917969 291.738281 L 76.734375 291.558594 L 77.546875 291.378906 L 79.179688 291.011719 L 80.8125 290.636719 L 82.445312 290.253906 L 83.257812 290.058594 L 84.890625 289.660156 L 86.523438 289.253906 L 88.15625 288.832031 L 88.96875 288.617188 L 89.785156 288.398438 L 91.417969 287.953125 L 93.050781 287.492188 L 93.867188 287.253906 L 94.679688 287.011719 L 95.496094 286.765625 L 96.3125 286.515625 L 97.128906 286.261719 L 97.945312 286 L 98.761719 285.734375 L 99.578125 285.464844 L 100.390625 285.1875 L 101.207031 284.90625 L 102.023438 284.617188 L 102.839844 284.324219 L 103.65625 284.023438 L 104.472656 283.71875 L 105.289062 283.40625 L 106.101562 283.085938 L 106.917969 282.757812 L 107.734375 282.425781 L 108.550781 282.085938 L 109.367188 281.738281 L 110.183594 281.378906 L 111 281.015625 L 111.8125 280.644531 L 112.628906 280.265625 L 113.445312 279.875 L 114.261719 279.480469 L 115.078125 279.074219 L 115.894531 278.660156 L 116.707031 278.238281 L 117.523438 277.804688 L 118.339844 277.363281 L 119.15625 276.914062 L 119.972656 276.453125 L 120.789062 275.984375 L 121.605469 275.503906 L 122.417969 275.015625 L 123.234375 274.515625 L 124.050781 274.007812 L 124.867188 273.488281 L 125.683594 272.957031 L 126.5 272.417969 L 127.316406 271.871094 L 128.128906 271.308594 L 128.945312 270.738281 L 129.761719 270.15625 L 130.578125 269.566406 L 131.394531 268.964844 L 132.210938 268.351562 L 133.027344 267.730469 L 133.839844 267.09375 L 134.65625 266.449219 L 135.472656 265.796875 L 136.289062 265.128906 L 137.105469 264.453125 L 137.921875 263.769531 L 138.738281 263.070312 L 139.550781 262.363281 L 140.367188 261.644531 L 141.183594 260.917969 L 142 260.179688 L 142.816406 259.429688 L 143.632812 258.667969 L 144.449219 257.902344 L 145.261719 257.121094 L 146.078125 256.332031 L 146.894531 255.53125 L 147.710938 254.722656 L 148.527344 253.90625 L 149.34375 253.078125 L 150.160156 252.238281 L 150.972656 251.390625 L 151.789062 250.535156 L 152.605469 249.671875 L 153.421875 248.796875 L 154.238281 247.914062 L 155.054688 247.019531 L 155.867188 246.121094 L 156.683594 245.210938 L 157.5 244.292969 L 158.316406 243.367188 L 159.132812 242.433594 L 159.949219 241.488281 L 160.765625 240.539062 L 161.578125 239.582031 L 162.394531 238.617188 L 163.210938 237.640625 L 164.027344 236.660156 L 164.84375 235.671875 L 165.660156 234.679688 L 166.476562 233.675781 L 167.289062 232.664062 L 168.105469 231.648438 L 168.921875 230.625 L 169.738281 229.59375 L 170.554688 228.558594 L 171.371094 227.511719 L 172.1875 226.460938 L 173 225.40625 L 173.816406 224.339844 L 174.632812 223.269531 L 175.449219 222.195312 L 177.082031 220.023438 L 177.898438 218.925781 L 178.710938 217.824219 L 179.527344 216.714844 L 180.34375 215.601562 L 181.160156 214.480469 L 181.976562 213.355469 L 183.609375 211.082031 L 184.421875 209.933594 L 185.238281 208.78125 L 186.054688 207.625 L 186.871094 206.460938 L 187.6875 205.289062 L 188.503906 204.113281 L 189.320312 202.925781 L 190.132812 201.738281 L 190.949219 200.539062 L 191.765625 199.335938 L 192.582031 198.128906 L 193.398438 196.910156 L 194.214844 195.6875 L 195.027344 194.457031 L 195.84375 193.222656 L 196.660156 191.980469 L 197.476562 190.730469 L 198.292969 189.476562 L 199.925781 186.945312 L 200.738281 185.667969 L 201.554688 184.386719 L 202.371094 183.097656 L 203.1875 181.804688 L 204.820312 179.195312 L 205.636719 177.882812 L 206.449219 176.5625 L 207.265625 175.238281 L 208.082031 173.90625 L 208.898438 172.570312 L 209.714844 171.226562 L 210.53125 169.878906 L 211.347656 168.527344 L 212.160156 167.171875 L 212.976562 165.8125 L 214.609375 163.078125 L 215.425781 161.707031 L 216.242188 160.332031 L 217.058594 158.953125 L 217.871094 157.574219 L 220.320312 153.425781 L 221.136719 152.039062 L 222.769531 149.273438 L 223.582031 147.890625 L 225.214844 145.132812 L 226.847656 142.390625 L 227.664062 141.027344 L 228.480469 139.667969 L 229.292969 138.3125 L 230.109375 136.96875 L 230.925781 135.628906 L 231.742188 134.300781 L 232.558594 132.980469 L 233.375 131.671875 L 234.1875 130.375 L 235.003906 129.089844 L 235.820312 127.820312 L 236.636719 126.5625 L 237.453125 125.320312 L 238.269531 124.09375 L 239.085938 122.886719 L 239.898438 121.695312 L 240.714844 120.527344 L 241.53125 119.378906 L 242.347656 118.25 L 243.164062 117.144531 L 243.980469 116.0625 L 244.796875 115.003906 L 245.609375 113.972656 L 246.425781 112.96875 L 247.242188 111.992188 L 248.058594 111.046875 L 248.875 110.128906 L 249.691406 109.242188 L 250.507812 108.390625 L 251.320312 107.566406 L 252.136719 106.78125 L 252.953125 106.03125 L 253.769531 105.316406 L 254.585938 104.640625 L 255.402344 104 L 256.21875 103.402344 L 257.03125 102.84375 L 257.847656 102.324219 L 258.664062 101.847656 L 259.480469 101.414062 L 260.296875 101.027344 L 261.113281 100.679688 L 261.929688 100.382812 L 262.742188 100.128906 L 263.558594 99.921875 L 264.375 99.761719 L 265.191406 99.652344 L 266.007812 99.589844 L 266.824219 99.574219 L 267.640625 99.613281 L 268.453125 99.699219 L 269.269531 99.835938 L 270.085938 100.023438 L 270.902344 100.265625 L 271.71875 100.554688 L 272.535156 100.902344 L 273.351562 101.296875 L 274.164062 101.746094 L 274.980469 102.246094 L 275.796875 102.800781 L 276.613281 103.40625 L 277.429688 104.066406 L 278.246094 104.78125 L 279.058594 105.542969 L 279.875 106.363281 L 280.691406 107.230469 L 281.507812 108.152344 L 282.324219 109.125 L 283.140625 110.148438 L 283.957031 111.222656 L 284.769531 112.347656 L 285.585938 113.523438 L 286.402344 114.746094 L 287.21875 116.019531 L 288.035156 117.339844 L 288.851562 118.707031 L 289.667969 120.121094 L 290.480469 121.582031 L 291.296875 123.085938 L 292.113281 124.632812 L 292.929688 126.222656 L 293.746094 127.859375 L 294.5625 129.53125 L 295.378906 131.246094 L 296.191406 133 L 297.007812 134.789062 L 297.824219 136.617188 L 298.640625 138.476562 L 299.457031 140.375 L 300.273438 142.300781 L 301.089844 144.261719 L 301.902344 146.25 L 302.71875 148.269531 L 303.535156 150.316406 L 304.351562 152.386719 L 305.167969 154.480469 L 305.984375 156.601562 L 306.800781 158.742188 L 307.613281 160.898438 L 308.429688 163.078125 L 309.246094 165.273438 L 310.0625 167.484375 L 310.878906 169.707031 L 311.695312 171.945312 L 312.511719 174.191406 L 313.324219 176.445312 L 314.140625 178.710938 L 314.957031 180.980469 L 315.773438 183.253906 L 317.40625 187.808594 L 318.21875 190.089844 L 319.035156 192.363281 L 319.851562 194.640625 L 320.667969 196.910156 L 321.484375 199.171875 L 322.300781 201.429688 L 323.117188 203.675781 L 323.929688 205.914062 L 324.746094 208.140625 L 325.5625 210.351562 L 326.378906 212.550781 L 327.195312 214.734375 L 328.011719 216.902344 L 328.828125 219.050781 L 329.640625 221.183594 L 330.457031 223.292969 L 331.273438 225.382812 L 332.089844 227.453125 L 332.90625 229.496094 L 333.722656 231.515625 L 334.539062 233.511719 L 335.351562 235.484375 L 336.167969 237.425781 L 336.984375 239.34375 L 337.800781 241.234375 L 338.617188 243.09375 L 339.433594 244.921875 L 340.25 246.722656 L 341.0625 248.496094 L 341.878906 250.234375 L 342.695312 251.941406 L 343.511719 253.617188 L 344.328125 255.261719 L 345.144531 256.875 L 345.960938 258.453125 L 346.773438 260 L 347.589844 261.511719 L 348.40625 262.992188 L 349.222656 264.4375 L 350.039062 265.851562 L 350.855469 267.230469 L 351.671875 268.578125 L 352.484375 269.890625 L 353.300781 271.171875 L 354.117188 272.417969 L 354.933594 273.632812 L 355.75 274.816406 L 356.566406 275.964844 L 357.378906 277.082031 L 358.195312 278.167969 L 359.011719 279.222656 L 359.828125 280.246094 L 360.644531 281.238281 L 361.460938 282.203125 L 362.277344 283.136719 L 363.089844 284.039062 L 363.90625 284.914062 L 364.722656 285.761719 L 365.539062 286.582031 L 366.355469 287.375 L 367.171875 288.140625 L 367.988281 288.878906 L 368.800781 289.59375 L 369.617188 290.285156 L 370.433594 290.949219 L 371.25 291.59375 L 372.066406 292.210938 L 372.882812 292.808594 L 373.699219 293.382812 L 374.511719 293.9375 L 375.328125 294.472656 L 376.144531 294.988281 L 376.960938 295.484375 L 377.777344 295.960938 L 378.59375 296.421875 L 379.410156 296.867188 L 380.222656 297.292969 L 381.039062 297.703125 L 381.855469 298.097656 L 382.671875 298.480469 L 383.488281 298.84375 L 384.304688 299.199219 L 385.121094 299.539062 L 385.933594 299.867188 L 386.75 300.183594 L 387.566406 300.492188 L 388.382812 300.785156 L 389.199219 301.070312 L 390.015625 301.34375 L 390.832031 301.613281 L 391.644531 301.871094 L 392.460938 302.117188 L 393.277344 302.359375 L 394.09375 302.59375 L 394.910156 302.820312 L 395.726562 303.042969 L 396.539062 303.253906 L 397.355469 303.464844 L 398.171875 303.667969 L 399.804688 304.058594 L 400.621094 304.246094 L 401.4375 304.429688 L 402.25 304.609375 L 403.066406 304.785156 L 403.882812 304.957031 L 405.515625 305.292969 L 407.148438 305.613281 L 407.960938 305.769531 L 408.777344 305.925781 L 409.59375 306.078125 L 411.226562 306.375 L 412.859375 306.664062 L 413.671875 306.808594 L 414.488281 306.945312 L 415.304688 307.085938 L 416.121094 307.222656 L 418.570312 307.621094 L 419.382812 307.75 L 421.015625 308.007812 L 422.648438 308.257812 L 424.28125 308.5 L 425.09375 308.621094 L 427.542969 308.972656 L 429.992188 309.3125 L 430.804688 309.421875 L 432.4375 309.640625 L 434.886719 309.957031 L 435.699219 310.058594 L 438.148438 310.363281 L 439.78125 310.558594 L 440.597656 310.652344 L 441.410156 310.75 L 444.675781 311.125 L 446.308594 311.304688 L 447.121094 311.394531 L 449.570312 311.664062 L 450.386719 311.75 L 451.203125 311.839844 L 452.019531 311.925781 L 452.832031 312.015625 L 453.648438 312.101562 L 454.464844 312.191406 L 456.914062 312.449219 L 457.730469 312.539062 L 458.542969 312.625 L 460.175781 312.796875 "/>
<path fill="none" stroke-width="1.066978" stroke-linecap="butt" stroke-linejoin="round" stroke="rgb(0%, 72.941176%, 21.960784%)" stroke-opacity="1" stroke-miterlimit="10" d="M 78.363281 101.316406 L 79.179688 100.511719 L 79.996094 99.710938 L 80.8125 98.90625 L 82.445312 97.304688 L 83.257812 96.507812 L 84.074219 95.707031 L 87.339844 92.519531 L 88.15625 91.726562 L 88.96875 90.929688 L 91.417969 88.550781 L 92.234375 87.753906 L 93.867188 86.167969 L 94.679688 85.375 L 95.496094 84.582031 L 96.3125 83.785156 L 97.945312 82.199219 L 98.761719 81.402344 L 99.578125 80.609375 L 100.390625 79.8125 L 101.207031 79.015625 L 102.023438 78.222656 L 105.289062 75.035156 L 106.101562 74.238281 L 109.367188 71.050781 L 111 69.464844 L 111.8125 68.671875 L 112.628906 67.878906 L 113.445312 67.089844 L 115.078125 65.519531 L 115.894531 64.738281 L 116.707031 63.957031 L 118.339844 62.410156 L 119.15625 61.644531 L 119.972656 60.882812 L 120.789062 60.125 L 121.605469 59.375 L 122.417969 58.632812 L 123.234375 57.898438 L 124.050781 57.167969 L 124.867188 56.449219 L 125.683594 55.738281 L 126.5 55.035156 L 127.316406 54.34375 L 128.128906 53.664062 L 128.945312 52.996094 L 129.761719 52.339844 L 130.578125 51.695312 L 131.394531 51.070312 L 132.210938 50.453125 L 133.027344 49.855469 L 133.839844 49.273438 L 134.65625 48.710938 L 135.472656 48.164062 L 136.289062 47.636719 L 137.105469 47.128906 L 137.921875 46.640625 L 138.738281 46.175781 L 139.550781 45.730469 L 140.367188 45.3125 L 141.183594 44.914062 L 142 44.542969 L 142.816406 44.199219 L 143.632812 43.878906 L 144.449219 43.585938 L 145.261719 43.324219 L 146.078125 43.089844 L 146.894531 42.882812 L 147.710938 42.707031 L 148.527344 42.566406 L 149.34375 42.453125 L 150.160156 42.375 L 150.972656 42.332031 L 151.789062 42.320312 L 152.605469 42.34375 L 153.421875 42.40625 L 154.238281 42.5 L 155.054688 42.632812 L 155.867188 42.804688 L 156.683594 43.011719 L 157.5 43.261719 L 158.316406 43.546875 L 159.132812 43.871094 L 159.949219 44.238281 L 160.765625 44.640625 L 161.578125 45.085938 L 162.394531 45.574219 L 163.210938 46.101562 L 164.027344 46.671875 L 164.84375 47.28125 L 165.660156 47.9375 L 166.476562 48.628906 L 167.289062 49.367188 L 168.105469 50.148438 L 168.921875 50.96875 L 169.738281 51.832031 L 170.554688 52.738281 L 171.371094 53.683594 L 172.1875 54.675781 L 173 55.707031 L 173.816406 56.777344 L 174.632812 57.894531 L 175.449219 59.046875 L 176.265625 60.246094 L 177.082031 61.480469 L 177.898438 62.757812 L 178.710938 64.074219 L 179.527344 65.429688 L 180.34375 66.824219 L 181.160156 68.257812 L 181.976562 69.726562 L 182.792969 71.234375 L 183.609375 72.777344 L 184.421875 74.355469 L 185.238281 75.972656 L 186.054688 77.621094 L 186.871094 79.304688 L 187.6875 81.019531 L 188.503906 82.769531 L 189.320312 84.546875 L 190.132812 86.359375 L 190.949219 88.199219 L 191.765625 90.070312 L 192.582031 91.964844 L 193.398438 93.890625 L 194.214844 95.84375 L 195.027344 97.820312 L 195.84375 99.820312 L 196.660156 101.84375 L 197.476562 103.890625 L 198.292969 105.960938 L 199.109375 108.050781 L 199.925781 110.160156 L 200.738281 112.289062 L 201.554688 114.433594 L 202.371094 116.59375 L 203.1875 118.773438 L 204.003906 120.964844 L 204.820312 123.171875 L 205.636719 125.386719 L 206.449219 127.617188 L 207.265625 129.859375 L 208.082031 132.109375 L 208.898438 134.367188 L 209.714844 136.632812 L 210.53125 138.90625 L 211.347656 141.183594 L 212.160156 143.464844 L 212.976562 145.75 L 217.058594 157.195312 L 217.871094 159.480469 L 218.6875 161.765625 L 219.503906 164.042969 L 220.320312 166.316406 L 221.136719 168.585938 L 221.953125 170.84375 L 222.769531 173.097656 L 223.582031 175.34375 L 224.398438 177.578125 L 225.214844 179.804688 L 226.03125 182.019531 L 226.847656 184.226562 L 227.664062 186.417969 L 228.480469 188.59375 L 229.292969 190.757812 L 230.109375 192.910156 L 230.925781 195.046875 L 231.742188 197.164062 L 232.558594 199.269531 L 233.375 201.355469 L 234.1875 203.425781 L 235.003906 205.476562 L 235.820312 207.507812 L 236.636719 209.523438 L 237.453125 211.519531 L 238.269531 213.492188 L 239.085938 215.449219 L 239.898438 217.382812 L 240.714844 219.292969 L 241.53125 221.183594 L 242.347656 223.054688 L 243.164062 224.902344 L 243.980469 226.726562 L 244.796875 228.527344 L 245.609375 230.308594 L 246.425781 232.0625 L 247.242188 233.796875 L 248.058594 235.507812 L 248.875 237.191406 L 249.691406 238.855469 L 250.507812 240.492188 L 251.320312 242.105469 L 252.136719 243.695312 L 252.953125 245.261719 L 253.769531 246.804688 L 254.585938 248.320312 L 255.402344 249.8125 L 256.21875 251.285156 L 257.03125 252.730469 L 257.847656 254.148438 L 258.664062 255.546875 L 259.480469 256.921875 L 260.296875 258.269531 L 261.113281 259.597656 L 261.929688 260.898438 L 262.742188 262.179688 L 263.558594 263.4375 L 264.375 264.667969 L 265.191406 265.878906 L 266.007812 267.066406 L 266.824219 268.234375 L 267.640625 269.378906 L 268.453125 270.5 L 269.269531 271.601562 L 270.085938 272.679688 L 270.902344 273.734375 L 271.71875 274.773438 L 272.535156 275.789062 L 273.351562 276.785156 L 274.164062 277.761719 L 274.980469 278.714844 L 275.796875 279.652344 L 276.613281 280.570312 L 277.429688 281.46875 L 278.246094 282.347656 L 279.058594 283.207031 L 279.875 284.050781 L 280.691406 284.875 L 281.507812 285.683594 L 282.324219 286.472656 L 283.140625 287.246094 L 283.957031 288 L 284.769531 288.742188 L 285.585938 289.464844 L 286.402344 290.171875 L 287.21875 290.863281 L 288.035156 291.539062 L 288.851562 292.199219 L 289.667969 292.84375 L 290.480469 293.476562 L 291.296875 294.09375 L 292.113281 294.695312 L 292.929688 295.285156 L 293.746094 295.859375 L 294.5625 296.417969 L 295.378906 296.964844 L 296.191406 297.5 L 297.007812 298.023438 L 297.824219 298.53125 L 298.640625 299.027344 L 299.457031 299.511719 L 300.273438 299.980469 L 301.089844 300.441406 L 301.902344 300.886719 L 302.71875 301.324219 L 303.535156 301.746094 L 304.351562 302.160156 L 305.167969 302.5625 L 305.984375 302.953125 L 306.800781 303.332031 L 307.613281 303.699219 L 308.429688 304.058594 L 309.246094 304.40625 L 310.0625 304.742188 L 310.878906 305.066406 L 311.695312 305.382812 L 312.511719 305.691406 L 313.324219 305.988281 L 314.140625 306.273438 L 314.957031 306.550781 L 315.773438 306.816406 L 316.589844 307.074219 L 317.40625 307.324219 L 318.21875 307.5625 L 319.035156 307.792969 L 319.851562 308.015625 L 320.667969 308.226562 L 321.484375 308.433594 L 322.300781 308.628906 L 323.117188 308.8125 L 323.929688 308.992188 L 324.746094 309.160156 L 325.5625 309.324219 L 326.378906 309.476562 L 327.195312 309.625 L 328.011719 309.761719 L 328.828125 309.894531 L 329.640625 310.015625 L 330.457031 310.132812 L 331.273438 310.238281 L 332.089844 310.339844 L 332.90625 310.4375 L 333.722656 310.523438 L 334.539062 310.605469 L 335.351562 310.679688 L 336.167969 310.75 L 337.800781 310.867188 L 338.617188 310.917969 L 339.433594 310.960938 L 340.25 311 L 341.0625 311.035156 L 341.878906 311.0625 L 342.695312 311.085938 L 344.328125 311.117188 L 345.960938 311.132812 L 346.773438 311.132812 L 347.589844 311.128906 L 348.40625 311.121094 L 350.039062 311.097656 L 351.671875 311.058594 L 352.484375 311.035156 L 354.117188 310.980469 L 354.933594 310.949219 L 356.566406 310.878906 L 357.378906 310.84375 L 358.195312 310.804688 L 359.011719 310.761719 L 359.828125 310.722656 L 361.460938 310.636719 L 362.277344 310.589844 L 363.089844 310.546875 L 366.355469 310.359375 L 367.171875 310.316406 L 367.988281 310.269531 L 368.800781 310.222656 L 369.617188 310.179688 L 370.433594 310.132812 L 372.066406 310.046875 L 372.882812 310.007812 L 373.699219 309.964844 L 374.511719 309.925781 L 375.328125 309.886719 L 377.777344 309.78125 L 379.410156 309.71875 L 380.222656 309.691406 L 381.039062 309.664062 L 383.488281 309.59375 L 384.304688 309.574219 L 385.121094 309.558594 L 385.933594 309.542969 L 388.382812 309.507812 L 389.199219 309.503906 L 390.015625 309.496094 L 390.832031 309.492188 L 392.460938 309.492188 L 394.09375 309.5 L 395.726562 309.515625 L 396.539062 309.523438 L 397.355469 309.535156 L 398.171875 309.550781 L 398.988281 309.5625 L 399.804688 309.582031 L 400.621094 309.597656 L 401.4375 309.617188 L 402.25 309.636719 L 403.066406 309.65625 L 405.515625 309.726562 L 406.332031 309.753906 L 407.148438 309.777344 L 407.960938 309.804688 L 412.859375 309.96875 L 413.671875 309.996094 L 414.488281 310.027344 L 416.121094 310.082031 L 416.9375 310.105469 L 418.570312 310.160156 L 419.382812 310.183594 L 421.832031 310.253906 L 424.28125 310.3125 L 425.09375 310.332031 L 426.726562 310.363281 L 427.542969 310.375 L 428.359375 310.390625 L 429.175781 310.398438 L 429.992188 310.410156 L 430.804688 310.414062 L 431.621094 310.421875 L 433.253906 310.429688 L 434.886719 310.429688 L 435.699219 310.425781 L 436.515625 310.421875 L 438.964844 310.398438 L 439.78125 310.386719 L 440.597656 310.371094 L 441.410156 310.359375 L 442.226562 310.339844 L 443.042969 310.324219 L 443.859375 310.304688 L 446.308594 310.234375 L 447.121094 310.210938 L 447.9375 310.183594 L 448.753906 310.152344 L 449.570312 310.125 L 451.203125 310.0625 L 452.019531 310.027344 L 452.832031 309.996094 L 453.648438 309.960938 L 454.464844 309.921875 L 455.28125 309.886719 L 456.097656 309.847656 L 456.914062 309.8125 L 457.730469 309.773438 L 458.542969 309.730469 L 460.175781 309.652344 L 460.992188 309.609375 L 461.808594 309.570312 L 462.625 309.527344 L 463.441406 309.488281 L 464.253906 309.445312 L 465.886719 309.359375 L 466.703125 309.320312 L 468.335938 309.234375 "/>
<path fill="none" stroke-width="1.066978" stroke-linecap="butt" stroke-linejoin="round" stroke="rgb(38.039216%, 61.176471%, 100%)" stroke-opacity="1" stroke-miterlimit="10" d="M 88.15625 310.183594 L 88.96875 310.050781 L 89.785156 309.910156 L 91.417969 309.636719 L 93.867188 309.214844 L 94.679688 309.074219 L 96.3125 308.792969 L 97.128906 308.65625 L 97.945312 308.515625 L 98.761719 308.378906 L 99.578125 308.246094 L 100.390625 308.109375 L 102.023438 307.851562 L 103.65625 307.601562 L 105.289062 307.367188 L 106.101562 307.257812 L 106.917969 307.152344 L 107.734375 307.050781 L 108.550781 306.957031 L 109.367188 306.867188 L 110.183594 306.78125 L 111 306.703125 L 111.8125 306.632812 L 112.628906 306.566406 L 113.445312 306.511719 L 114.261719 306.460938 L 115.078125 306.414062 L 115.894531 306.378906 L 116.707031 306.347656 L 117.523438 306.328125 L 118.339844 306.3125 L 119.15625 306.304688 L 119.972656 306.308594 L 120.789062 306.316406 L 121.605469 306.328125 L 122.417969 306.351562 L 123.234375 306.378906 L 124.050781 306.414062 L 124.867188 306.457031 L 125.683594 306.503906 L 126.5 306.558594 L 127.316406 306.617188 L 128.128906 306.679688 L 128.945312 306.746094 L 129.761719 306.816406 L 130.578125 306.894531 L 131.394531 306.96875 L 132.210938 307.050781 L 133.027344 307.128906 L 133.839844 307.210938 L 134.65625 307.292969 L 137.105469 307.527344 L 138.738281 307.667969 L 139.550781 307.730469 L 140.367188 307.785156 L 141.183594 307.835938 L 142 307.875 L 142.816406 307.90625 L 143.632812 307.929688 L 144.449219 307.9375 L 145.261719 307.9375 L 146.078125 307.921875 L 146.894531 307.890625 L 147.710938 307.84375 L 148.527344 307.78125 L 149.34375 307.699219 L 150.160156 307.601562 L 150.972656 307.480469 L 151.789062 307.339844 L 152.605469 307.175781 L 153.421875 306.992188 L 154.238281 306.78125 L 155.054688 306.546875 L 155.867188 306.285156 L 156.683594 305.996094 L 157.5 305.675781 L 158.316406 305.332031 L 159.132812 304.957031 L 159.949219 304.550781 L 160.765625 304.113281 L 161.578125 303.640625 L 162.394531 303.140625 L 163.210938 302.601562 L 164.027344 302.03125 L 164.84375 301.429688 L 165.660156 300.789062 L 166.476562 300.113281 L 167.289062 299.402344 L 168.105469 298.652344 L 168.921875 297.871094 L 169.738281 297.046875 L 170.554688 296.191406 L 171.371094 295.296875 L 172.1875 294.363281 L 173 293.398438 L 173.816406 292.390625 L 174.632812 291.351562 L 175.449219 290.273438 L 176.265625 289.160156 L 177.082031 288.011719 L 177.898438 286.832031 L 178.710938 285.613281 L 179.527344 284.363281 L 180.34375 283.078125 L 181.160156 281.761719 L 181.976562 280.414062 L 182.792969 279.035156 L 183.609375 277.628906 L 184.421875 276.191406 L 185.238281 274.730469 L 186.054688 273.242188 L 186.871094 271.726562 L 187.6875 270.1875 L 188.503906 268.628906 L 189.320312 267.046875 L 190.132812 265.449219 L 190.949219 263.828125 L 191.765625 262.195312 L 192.582031 260.542969 L 193.398438 258.882812 L 194.214844 257.207031 L 195.027344 255.523438 L 195.84375 253.828125 L 196.660156 252.128906 L 197.476562 250.425781 L 199.925781 245.304688 L 200.738281 243.597656 L 201.554688 241.898438 L 202.371094 240.207031 L 203.1875 238.519531 L 204.003906 236.847656 L 204.820312 235.183594 L 205.636719 233.535156 L 206.449219 231.902344 L 207.265625 230.285156 L 208.082031 228.6875 L 208.898438 227.113281 L 209.714844 225.5625 L 210.53125 224.035156 L 211.347656 222.535156 L 212.160156 221.0625 L 212.976562 219.621094 L 213.792969 218.210938 L 214.609375 216.832031 L 215.425781 215.488281 L 216.242188 214.183594 L 217.058594 212.914062 L 217.871094 211.683594 L 218.6875 210.496094 L 219.503906 209.347656 L 220.320312 208.246094 L 221.136719 207.183594 L 221.953125 206.171875 L 222.769531 205.203125 L 223.582031 204.285156 L 224.398438 203.414062 L 225.214844 202.589844 L 226.03125 201.820312 L 226.847656 201.097656 L 227.664062 200.429688 L 228.480469 199.816406 L 229.292969 199.25 L 230.109375 198.742188 L 230.925781 198.289062 L 231.742188 197.886719 L 232.558594 197.539062 L 233.375 197.25 L 234.1875 197.011719 L 235.003906 196.832031 L 235.820312 196.707031 L 236.636719 196.636719 L 237.453125 196.621094 L 238.269531 196.660156 L 239.085938 196.753906 L 239.898438 196.902344 L 240.714844 197.101562 L 241.53125 197.359375 L 242.347656 197.667969 L 243.164062 198.027344 L 243.980469 198.441406 L 244.796875 198.90625 L 245.609375 199.421875 L 246.425781 199.984375 L 247.242188 200.597656 L 248.058594 201.257812 L 248.875 201.964844 L 249.691406 202.71875 L 250.507812 203.515625 L 251.320312 204.359375 L 252.136719 205.242188 L 252.953125 206.167969 L 253.769531 207.132812 L 254.585938 208.140625 L 255.402344 209.183594 L 256.21875 210.261719 L 257.03125 211.375 L 257.847656 212.523438 L 258.664062 213.703125 L 259.480469 214.914062 L 260.296875 216.152344 L 261.113281 217.421875 L 261.929688 218.714844 L 262.742188 220.035156 L 263.558594 221.378906 L 264.375 222.742188 L 265.191406 224.128906 L 266.007812 225.53125 L 266.824219 226.953125 L 267.640625 228.390625 L 268.453125 229.839844 L 269.269531 231.304688 L 270.085938 232.78125 L 270.902344 234.269531 L 271.71875 235.761719 L 272.535156 237.261719 L 273.351562 238.769531 L 274.164062 240.28125 L 274.980469 241.792969 L 276.613281 244.824219 L 278.246094 247.847656 L 279.058594 249.355469 L 279.875 250.855469 L 280.691406 252.351562 L 281.507812 253.839844 L 282.324219 255.320312 L 283.140625 256.789062 L 283.957031 258.246094 L 284.769531 259.691406 L 285.585938 261.125 L 286.402344 262.546875 L 287.21875 263.949219 L 288.035156 265.339844 L 288.851562 266.710938 L 289.667969 268.066406 L 290.480469 269.402344 L 291.296875 270.722656 L 292.113281 272.019531 L 292.929688 273.300781 L 293.746094 274.558594 L 294.5625 275.792969 L 295.378906 277.007812 L 296.191406 278.199219 L 297.007812 279.371094 L 297.824219 280.515625 L 298.640625 281.640625 L 299.457031 282.738281 L 300.273438 283.816406 L 301.089844 284.867188 L 301.902344 285.894531 L 302.71875 286.894531 L 303.535156 287.875 L 304.351562 288.828125 L 305.167969 289.753906 L 305.984375 290.65625 L 306.800781 291.535156 L 307.613281 292.390625 L 308.429688 293.21875 L 309.246094 294.023438 L 310.0625 294.800781 L 310.878906 295.558594 L 311.695312 296.289062 L 312.511719 296.996094 L 313.324219 297.679688 L 314.140625 298.339844 L 314.957031 298.976562 L 315.773438 299.59375 L 316.589844 300.183594 L 317.40625 300.753906 L 318.21875 301.304688 L 319.035156 301.832031 L 319.851562 302.339844 L 320.667969 302.824219 L 321.484375 303.289062 L 322.300781 303.738281 L 323.117188 304.164062 L 323.929688 304.574219 L 324.746094 304.960938 L 325.5625 305.335938 L 326.378906 305.691406 L 327.195312 306.027344 L 328.011719 306.351562 L 328.828125 306.65625 L 329.640625 306.945312 L 330.457031 307.222656 L 331.273438 307.484375 L 332.089844 307.730469 L 332.90625 307.964844 L 333.722656 308.1875 L 334.539062 308.398438 L 335.351562 308.59375 L 336.167969 308.777344 L 336.984375 308.953125 L 337.800781 309.117188 L 338.617188 309.269531 L 339.433594 309.414062 L 340.25 309.550781 L 341.0625 309.675781 L 341.878906 309.792969 L 342.695312 309.902344 L 343.511719 310.003906 L 344.328125 310.101562 L 345.144531 310.1875 L 345.960938 310.269531 L 346.773438 310.34375 L 347.589844 310.414062 L 348.40625 310.480469 L 349.222656 310.539062 L 350.039062 310.59375 L 351.671875 310.6875 L 352.484375 310.730469 L 353.300781 310.769531 L 355.75 310.863281 L 356.566406 310.886719 L 357.378906 310.910156 L 359.011719 310.949219 L 360.644531 310.980469 L 361.460938 310.992188 L 362.277344 311 L 363.089844 311.011719 L 364.722656 311.027344 L 367.171875 311.039062 L 367.988281 311.039062 L 368.800781 311.042969 L 371.25 311.042969 L 372.066406 311.039062 L 372.882812 311.039062 L 373.699219 311.035156 L 374.511719 311.03125 L 375.328125 311.027344 L 376.144531 311.019531 L 377.777344 311.011719 L 379.410156 310.996094 L 380.222656 310.988281 L 381.855469 310.972656 L 382.671875 310.960938 L 383.488281 310.953125 L 385.121094 310.929688 L 385.933594 310.917969 L 386.75 310.90625 L 387.566406 310.890625 L 388.382812 310.878906 L 390.832031 310.832031 L 391.644531 310.816406 L 393.277344 310.777344 L 394.09375 310.761719 L 394.910156 310.742188 L 395.726562 310.71875 L 396.539062 310.699219 L 397.355469 310.679688 L 400.621094 310.585938 L 401.4375 310.558594 L 402.25 310.535156 L 406.332031 310.398438 L 407.148438 310.367188 L 407.960938 310.339844 L 408.777344 310.3125 L 410.410156 310.25 L 411.226562 310.222656 L 412.859375 310.160156 L 413.671875 310.128906 L 415.304688 310.066406 L 416.121094 310.039062 L 418.570312 309.945312 L 419.382812 309.917969 L 420.199219 309.886719 L 424.28125 309.75 L 425.09375 309.722656 L 428.359375 309.628906 L 429.992188 309.589844 L 430.804688 309.570312 L 431.621094 309.550781 L 433.253906 309.519531 L 434.886719 309.496094 L 435.699219 309.484375 L 436.515625 309.472656 L 437.332031 309.464844 L 438.148438 309.460938 L 438.964844 309.453125 L 439.78125 309.449219 L 442.226562 309.449219 L 443.859375 309.457031 L 446.308594 309.480469 L 447.121094 309.492188 L 450.386719 309.554688 L 451.203125 309.574219 L 452.019531 309.597656 L 452.832031 309.621094 L 453.648438 309.644531 L 456.097656 309.726562 L 457.730469 309.789062 L 458.542969 309.820312 L 460.992188 309.925781 L 463.441406 310.042969 L 464.253906 310.082031 L 465.070312 310.121094 L 468.335938 310.292969 L 469.152344 310.339844 L 469.964844 310.382812 L 470.78125 310.429688 L 471.597656 310.472656 L 473.230469 310.566406 L 474.046875 310.609375 L 474.859375 310.65625 L 478.125 310.84375 "/>
<g fill="rgb(30.196078%, 30.196078%, 30.196078%)" fill-opacity="1">
<use xlink:href="#glyph-0-0" x="39.984375" y="313.65625"/>
</g>
<g fill="rgb(30.196078%, 30.196078%, 30.196078%)" fill-opacity="1">
<use xlink:href="#glyph-0-1" x="25.300781" y="241.152344"/>
<use xlink:href="#glyph-0-0" x="30.194922" y="241.152344"/>
<use xlink:href="#glyph-0-0" x="35.089062" y="241.152344"/>
<use xlink:href="#glyph-0-0" x="39.983203" y="241.152344"/>
</g>
<g fill="rgb(30.196078%, 30.196078%, 30.196078%)" fill-opacity="1">
<use xlink:href="#glyph-0-2" x="20.410156" y="168.644531"/>
<use xlink:href="#glyph-0-0" x="25.304297" y="168.644531"/>
<use xlink:href="#glyph-0-0" x="30.198437" y="168.644531"/>
<use xlink:href="#glyph-0-0" x="35.092578" y="168.644531"/>
<use xlink:href="#glyph-0-0" x="39.986719" y="168.644531"/>
</g>
<g fill="rgb(30.196078%, 30.196078%, 30.196078%)" fill-opacity="1">
<use xlink:href="#glyph-0-2" x="20.410156" y="96.136719"/>
<use xlink:href="#glyph-0-1" x="25.304297" y="96.136719"/>
<use xlink:href="#glyph-0-0" x="30.198437" y="96.136719"/>
<use xlink:href="#glyph-0-0" x="35.092578" y="96.136719"/>
<use xlink:href="#glyph-0-0" x="39.986719" y="96.136719"/>
</g>
<g fill="rgb(30.196078%, 30.196078%, 30.196078%)" fill-opacity="1">
<use xlink:href="#glyph-0-3" x="20.410156" y="23.628906"/>
<use xlink:href="#glyph-0-0" x="25.304297" y="23.628906"/>
<use xlink:href="#glyph-0-0" x="30.198437" y="23.628906"/>
<use xlink:href="#glyph-0-0" x="35.092578" y="23.628906"/>
<use xlink:href="#glyph-0-0" x="39.986719" y="23.628906"/>
</g>
<g fill="rgb(30.196078%, 30.196078%, 30.196078%)" fill-opacity="1">
<use xlink:href="#glyph-0-0" x="67.761719" y="336.738281"/>
</g>
<g fill="rgb(30.196078%, 30.196078%, 30.196078%)" fill-opacity="1">
<use xlink:href="#glyph-0-1" x="206.726562" y="336.738281"/>
</g>
<g fill="rgb(30.196078%, 30.196078%, 30.196078%)" fill-opacity="1">
<use xlink:href="#glyph-0-2" x="343.238281" y="336.738281"/>
<use xlink:href="#glyph-0-0" x="348.132422" y="336.738281"/>
</g>
<g fill="rgb(30.196078%, 30.196078%, 30.196078%)" fill-opacity="1">
<use xlink:href="#glyph-0-2" x="482.203125" y="336.738281"/>
<use xlink:href="#glyph-0-1" x="487.097266" y="336.738281"/>
</g>
<g fill="rgb(0%, 0%, 0%)" fill-opacity="1">
<use xlink:href="#glyph-1-0" x="260.710938" y="351.207031"/>
<use xlink:href="#glyph-1-1" x="266.828613" y="351.207031"/>
<use xlink:href="#glyph-1-2" x="272.946289" y="351.207031"/>
<use xlink:href="#glyph-1-3" x="279.063965" y="351.207031"/>
<use xlink:href="#glyph-1-4" x="282.120117" y="351.207031"/>
</g>
<g fill="rgb(0%, 0%, 0%)" fill-opacity="1">
<use xlink:href="#glyph-2-0" x="14.351562" y="188.234375"/>
<use xlink:href="#glyph-2-1" x="14.351562" y="185.790527"/>
<use xlink:href="#glyph-2-2" x="14.351562" y="179.672852"/>
<use xlink:href="#glyph-2-0" x="14.351562" y="174.172852"/>
<use xlink:href="#glyph-2-3" x="14.351562" y="171.729004"/>
<use xlink:href="#glyph-2-4" x="14.351562" y="165.611328"/>
<use xlink:href="#glyph-2-1" x="14.351563" y="159.493652"/>
<use xlink:href="#glyph-2-2" x="14.351563" y="153.375977"/>
<use xlink:href="#glyph-2-4" x="14.351563" y="147.875977"/>
</g>
</svg>
